<?xml version="1.0" encoding="utf-8"?>
<!-- Designed by Vexels.com - 2016 All Rights Reserved - https://vexels.com/terms-and-conditions/  -->

<svg version="1.1" id="Capa_1" xmlns="http://www.w3.org/2000/svg" xmlns:xlink="http://www.w3.org/1999/xlink" x="0px" y="0px"
	 width="1200px" height="1200px" viewBox="0 0 1200 1200" enable-background="new 0 0 1200 1200" xml:space="preserve">
<g>
	<polygon opacity="0.95" fill="#FEC02D" points="327.825,207.143 600,50 872.184,207.143 872.184,521.429 600,678.571 
		327.825,521.429 	"/>
	<polygon opacity="0.95" fill="#0162B3" points="600,678.571 872.184,521.429 1144.357,678.571 1144.357,992.857 872.184,1150 
		600,992.857 	"/>
	<polygon fill="#DD1486" points="55.642,678.571 327.825,521.429 600,678.571 600,992.857 327.825,1150 55.642,992.857 	"/>
	<polygon opacity="0.95" fill="#FEC02D" points="511.983,677.923 327.825,784.244 143.66,677.923 327.825,571.597 	"/>
	<polygon fill="#DD1486" points="1056.34,677.923 872.184,784.244 688.021,677.923 872.184,571.597 	"/>
	<polygon opacity="0.95" fill="#0162B3" points="784.158,207.604 600,313.93 415.842,207.604 600,101.282 	"/>
</g>
</svg>
